<?xml version="1.0" encoding="UTF-8" standalone="no"?>
<svg
   xmlns:dc="http://purl.org/dc/elements/1.1/"
   xmlns:cc="http://creativecommons.org/ns#"
   xmlns:rdf="http://www.w3.org/1999/02/22-rdf-syntax-ns#"
   xmlns:svg="http://www.w3.org/2000/svg"
   xmlns="http://www.w3.org/2000/svg"
   xmlns:xlink="http://www.w3.org/1999/xlink"
   xmlns:sodipodi="http://sodipodi.sourceforge.net/DTD/sodipodi-0.dtd"
   xmlns:inkscape="http://www.inkscape.org/namespaces/inkscape"
   version="1.1"
   width="168.88177"
   height="226.23004"
   viewBox="0 0 168.88178 226.23004"
   id="svg2"
   inkscape:version="0.91 r13725"
   sodipodi:docname="qr-bytes-nz-4235.svg">
  <metadata
     id="metadata447">
    <rdf:RDF>
      <cc:Work
         rdf:about="">
        <dc:format>image/svg+xml</dc:format>
        <dc:type
           rdf:resource="http://purl.org/dc/dcmitype/StillImage" />
        <dc:title></dc:title>
      </cc:Work>
    </rdf:RDF>
  </metadata>
  <sodipodi:namedview
     pagecolor="#ffffff"
     bordercolor="#666666"
     borderopacity="1"
     objecttolerance="10"
     gridtolerance="10"
     guidetolerance="10"
     inkscape:pageopacity="0"
     inkscape:pageshadow="2"
     inkscape:window-width="1920"
     inkscape:window-height="1025"
     id="namedview445"
     showgrid="false"
     fit-margin-top="0"
     fit-margin-left="0"
     fit-margin-right="0"
     fit-margin-bottom="0"
     inkscape:zoom="1"
     inkscape:cx="126.88404"
     inkscape:cy="127.96855"
     inkscape:window-x="0"
     inkscape:window-y="0"
     inkscape:window-maximized="1"
     inkscape:current-layer="svg2" />
  <desc
     id="desc4" />
  <defs
     id="defs8">
    <rect
       id="p"
       width="8"
       height="8"
       x="0"
       y="0" />
  </defs>
  <g
     id="g11"
     style="fill:#000000"
     transform="translate(-31.158235,-4.7845657)">
    <use
       x="32"
       y="32"
       xlink:href="#p"
       id="use13"
       width="100%"
       height="100%" />
    <use
       x="32"
       y="40"
       xlink:href="#p"
       id="use15"
       width="100%"
       height="100%" />
    <use
       x="32"
       y="48"
       xlink:href="#p"
       id="use17"
       width="100%"
       height="100%" />
    <use
       x="32"
       y="56"
       xlink:href="#p"
       id="use19"
       width="100%"
       height="100%" />
    <use
       x="32"
       y="64"
       xlink:href="#p"
       id="use21"
       width="100%"
       height="100%" />
    <use
       x="32"
       y="72"
       xlink:href="#p"
       id="use23"
       width="100%"
       height="100%" />
    <use
       x="32"
       y="80"
       xlink:href="#p"
       id="use25"
       width="100%"
       height="100%" />
    <use
       x="32"
       y="96"
       xlink:href="#p"
       id="use27"
       width="100%"
       height="100%" />
    <use
       x="32"
       y="144"
       xlink:href="#p"
       id="use29"
       width="100%"
       height="100%" />
    <use
       x="32"
       y="152"
       xlink:href="#p"
       id="use31"
       width="100%"
       height="100%" />
    <use
       x="32"
       y="160"
       xlink:href="#p"
       id="use33"
       width="100%"
       height="100%" />
    <use
       x="32"
       y="168"
       xlink:href="#p"
       id="use35"
       width="100%"
       height="100%" />
    <use
       x="32"
       y="176"
       xlink:href="#p"
       id="use37"
       width="100%"
       height="100%" />
    <use
       x="32"
       y="184"
       xlink:href="#p"
       id="use39"
       width="100%"
       height="100%" />
    <use
       x="32"
       y="192"
       xlink:href="#p"
       id="use41"
       width="100%"
       height="100%" />
    <use
       x="40"
       y="32"
       xlink:href="#p"
       id="use43"
       width="100%"
       height="100%" />
    <use
       x="40"
       y="80"
       xlink:href="#p"
       id="use45"
       width="100%"
       height="100%" />
    <use
       x="40"
       y="96"
       xlink:href="#p"
       id="use47"
       width="100%"
       height="100%" />
    <use
       x="40"
       y="112"
       xlink:href="#p"
       id="use49"
       width="100%"
       height="100%" />
    <use
       x="40"
       y="144"
       xlink:href="#p"
       id="use51"
       width="100%"
       height="100%" />
    <use
       x="40"
       y="192"
       xlink:href="#p"
       id="use53"
       width="100%"
       height="100%" />
    <use
       x="48"
       y="32"
       xlink:href="#p"
       id="use55"
       width="100%"
       height="100%" />
    <use
       x="48"
       y="48"
       xlink:href="#p"
       id="use57"
       width="100%"
       height="100%" />
    <use
       x="48"
       y="56"
       xlink:href="#p"
       id="use59"
       width="100%"
       height="100%" />
    <use
       x="48"
       y="64"
       xlink:href="#p"
       id="use61"
       width="100%"
       height="100%" />
    <use
       x="48"
       y="80"
       xlink:href="#p"
       id="use63"
       width="100%"
       height="100%" />
    <use
       x="48"
       y="96"
       xlink:href="#p"
       id="use65"
       width="100%"
       height="100%" />
    <use
       x="48"
       y="128"
       xlink:href="#p"
       id="use67"
       width="100%"
       height="100%" />
    <use
       x="48"
       y="144"
       xlink:href="#p"
       id="use69"
       width="100%"
       height="100%" />
    <use
       x="48"
       y="160"
       xlink:href="#p"
       id="use71"
       width="100%"
       height="100%" />
    <use
       x="48"
       y="168"
       xlink:href="#p"
       id="use73"
       width="100%"
       height="100%" />
    <use
       x="48"
       y="176"
       xlink:href="#p"
       id="use75"
       width="100%"
       height="100%" />
    <use
       x="48"
       y="192"
       xlink:href="#p"
       id="use77"
       width="100%"
       height="100%" />
    <use
       x="56"
       y="32"
       xlink:href="#p"
       id="use79"
       width="100%"
       height="100%" />
    <use
       x="56"
       y="48"
       xlink:href="#p"
       id="use81"
       width="100%"
       height="100%" />
    <use
       x="56"
       y="56"
       xlink:href="#p"
       id="use83"
       width="100%"
       height="100%" />
    <use
       x="56"
       y="64"
       xlink:href="#p"
       id="use85"
       width="100%"
       height="100%" />
    <use
       x="56"
       y="80"
       xlink:href="#p"
       id="use87"
       width="100%"
       height="100%" />
    <use
       x="56"
       y="96"
       xlink:href="#p"
       id="use89"
       width="100%"
       height="100%" />
    <use
       x="56"
       y="144"
       xlink:href="#p"
       id="use91"
       width="100%"
       height="100%" />
    <use
       x="56"
       y="160"
       xlink:href="#p"
       id="use93"
       width="100%"
       height="100%" />
    <use
       x="56"
       y="168"
       xlink:href="#p"
       id="use95"
       width="100%"
       height="100%" />
    <use
       x="56"
       y="176"
       xlink:href="#p"
       id="use97"
       width="100%"
       height="100%" />
    <use
       x="56"
       y="192"
       xlink:href="#p"
       id="use99"
       width="100%"
       height="100%" />
    <use
       x="64"
       y="32"
       xlink:href="#p"
       id="use101"
       width="100%"
       height="100%" />
    <use
       x="64"
       y="48"
       xlink:href="#p"
       id="use103"
       width="100%"
       height="100%" />
    <use
       x="64"
       y="56"
       xlink:href="#p"
       id="use105"
       width="100%"
       height="100%" />
    <use
       x="64"
       y="64"
       xlink:href="#p"
       id="use107"
       width="100%"
       height="100%" />
    <use
       x="64"
       y="80"
       xlink:href="#p"
       id="use109"
       width="100%"
       height="100%" />
    <use
       x="64"
       y="120"
       xlink:href="#p"
       id="use111"
       width="100%"
       height="100%" />
    <use
       x="64"
       y="128"
       xlink:href="#p"
       id="use113"
       width="100%"
       height="100%" />
    <use
       x="64"
       y="144"
       xlink:href="#p"
       id="use115"
       width="100%"
       height="100%" />
    <use
       x="64"
       y="160"
       xlink:href="#p"
       id="use117"
       width="100%"
       height="100%" />
    <use
       x="64"
       y="168"
       xlink:href="#p"
       id="use119"
       width="100%"
       height="100%" />
    <use
       x="64"
       y="176"
       xlink:href="#p"
       id="use121"
       width="100%"
       height="100%" />
    <use
       x="64"
       y="192"
       xlink:href="#p"
       id="use123"
       width="100%"
       height="100%" />
    <use
       x="72"
       y="32"
       xlink:href="#p"
       id="use125"
       width="100%"
       height="100%" />
    <use
       x="72"
       y="80"
       xlink:href="#p"
       id="use127"
       width="100%"
       height="100%" />
    <use
       x="72"
       y="112"
       xlink:href="#p"
       id="use129"
       width="100%"
       height="100%" />
    <use
       x="72"
       y="144"
       xlink:href="#p"
       id="use131"
       width="100%"
       height="100%" />
    <use
       x="72"
       y="192"
       xlink:href="#p"
       id="use133"
       width="100%"
       height="100%" />
    <use
       x="80"
       y="32"
       xlink:href="#p"
       id="use135"
       width="100%"
       height="100%" />
    <use
       x="80"
       y="40"
       xlink:href="#p"
       id="use137"
       width="100%"
       height="100%" />
    <use
       x="80"
       y="48"
       xlink:href="#p"
       id="use139"
       width="100%"
       height="100%" />
    <use
       x="80"
       y="56"
       xlink:href="#p"
       id="use141"
       width="100%"
       height="100%" />
    <use
       x="80"
       y="64"
       xlink:href="#p"
       id="use143"
       width="100%"
       height="100%" />
    <use
       x="80"
       y="72"
       xlink:href="#p"
       id="use145"
       width="100%"
       height="100%" />
    <use
       x="80"
       y="80"
       xlink:href="#p"
       id="use147"
       width="100%"
       height="100%" />
    <use
       x="80"
       y="96"
       xlink:href="#p"
       id="use149"
       width="100%"
       height="100%" />
    <use
       x="80"
       y="112"
       xlink:href="#p"
       id="use151"
       width="100%"
       height="100%" />
    <use
       x="80"
       y="128"
       xlink:href="#p"
       id="use153"
       width="100%"
       height="100%" />
    <use
       x="80"
       y="144"
       xlink:href="#p"
       id="use155"
       width="100%"
       height="100%" />
    <use
       x="80"
       y="152"
       xlink:href="#p"
       id="use157"
       width="100%"
       height="100%" />
    <use
       x="80"
       y="160"
       xlink:href="#p"
       id="use159"
       width="100%"
       height="100%" />
    <use
       x="80"
       y="168"
       xlink:href="#p"
       id="use161"
       width="100%"
       height="100%" />
    <use
       x="80"
       y="176"
       xlink:href="#p"
       id="use163"
       width="100%"
       height="100%" />
    <use
       x="80"
       y="184"
       xlink:href="#p"
       id="use165"
       width="100%"
       height="100%" />
    <use
       x="80"
       y="192"
       xlink:href="#p"
       id="use167"
       width="100%"
       height="100%" />
    <use
       x="88"
       y="104"
       xlink:href="#p"
       id="use169"
       width="100%"
       height="100%" />
    <use
       x="88"
       y="112"
       xlink:href="#p"
       id="use171"
       width="100%"
       height="100%" />
    <use
       x="88"
       y="120"
       xlink:href="#p"
       id="use173"
       width="100%"
       height="100%" />
    <use
       x="96"
       y="32"
       xlink:href="#p"
       id="use175"
       width="100%"
       height="100%" />
    <use
       x="96"
       y="48"
       xlink:href="#p"
       id="use177"
       width="100%"
       height="100%" />
    <use
       x="96"
       y="56"
       xlink:href="#p"
       id="use179"
       width="100%"
       height="100%" />
    <use
       x="96"
       y="64"
       xlink:href="#p"
       id="use181"
       width="100%"
       height="100%" />
    <use
       x="96"
       y="80"
       xlink:href="#p"
       id="use183"
       width="100%"
       height="100%" />
    <use
       x="96"
       y="96"
       xlink:href="#p"
       id="use185"
       width="100%"
       height="100%" />
    <use
       x="96"
       y="112"
       xlink:href="#p"
       id="use187"
       width="100%"
       height="100%" />
    <use
       x="96"
       y="136"
       xlink:href="#p"
       id="use189"
       width="100%"
       height="100%" />
    <use
       x="96"
       y="168"
       xlink:href="#p"
       id="use191"
       width="100%"
       height="100%" />
    <use
       x="96"
       y="176"
       xlink:href="#p"
       id="use193"
       width="100%"
       height="100%" />
    <use
       x="96"
       y="184"
       xlink:href="#p"
       id="use195"
       width="100%"
       height="100%" />
    <use
       x="96"
       y="192"
       xlink:href="#p"
       id="use197"
       width="100%"
       height="100%" />
    <use
       x="104"
       y="48"
       xlink:href="#p"
       id="use199"
       width="100%"
       height="100%" />
    <use
       x="104"
       y="56"
       xlink:href="#p"
       id="use201"
       width="100%"
       height="100%" />
    <use
       x="104"
       y="72"
       xlink:href="#p"
       id="use203"
       width="100%"
       height="100%" />
    <use
       x="104"
       y="96"
       xlink:href="#p"
       id="use205"
       width="100%"
       height="100%" />
    <use
       x="104"
       y="120"
       xlink:href="#p"
       id="use207"
       width="100%"
       height="100%" />
    <use
       x="104"
       y="184"
       xlink:href="#p"
       id="use209"
       width="100%"
       height="100%" />
    <use
       x="112"
       y="32"
       xlink:href="#p"
       id="use211"
       width="100%"
       height="100%" />
    <use
       x="112"
       y="40"
       xlink:href="#p"
       id="use213"
       width="100%"
       height="100%" />
    <use
       x="112"
       y="72"
       xlink:href="#p"
       id="use215"
       width="100%"
       height="100%" />
    <use
       x="112"
       y="80"
       xlink:href="#p"
       id="use217"
       width="100%"
       height="100%" />
    <use
       x="112"
       y="96"
       xlink:href="#p"
       id="use219"
       width="100%"
       height="100%" />
    <use
       x="112"
       y="104"
       xlink:href="#p"
       id="use221"
       width="100%"
       height="100%" />
    <use
       x="112"
       y="112"
       xlink:href="#p"
       id="use223"
       width="100%"
       height="100%" />
    <use
       x="112"
       y="128"
       xlink:href="#p"
       id="use225"
       width="100%"
       height="100%" />
    <use
       x="112"
       y="136"
       xlink:href="#p"
       id="use227"
       width="100%"
       height="100%" />
    <use
       x="112"
       y="144"
       xlink:href="#p"
       id="use229"
       width="100%"
       height="100%" />
    <use
       x="120"
       y="32"
       xlink:href="#p"
       id="use231"
       width="100%"
       height="100%" />
    <use
       x="120"
       y="40"
       xlink:href="#p"
       id="use233"
       width="100%"
       height="100%" />
    <use
       x="120"
       y="48"
       xlink:href="#p"
       id="use235"
       width="100%"
       height="100%" />
    <use
       x="120"
       y="64"
       xlink:href="#p"
       id="use237"
       width="100%"
       height="100%" />
    <use
       x="120"
       y="72"
       xlink:href="#p"
       id="use239"
       width="100%"
       height="100%" />
    <use
       x="120"
       y="88"
       xlink:href="#p"
       id="use241"
       width="100%"
       height="100%" />
    <use
       x="120"
       y="96"
       xlink:href="#p"
       id="use243"
       width="100%"
       height="100%" />
    <use
       x="120"
       y="112"
       xlink:href="#p"
       id="use245"
       width="100%"
       height="100%" />
    <use
       x="120"
       y="120"
       xlink:href="#p"
       id="use247"
       width="100%"
       height="100%" />
    <use
       x="120"
       y="128"
       xlink:href="#p"
       id="use249"
       width="100%"
       height="100%" />
    <use
       x="120"
       y="152"
       xlink:href="#p"
       id="use251"
       width="100%"
       height="100%" />
    <use
       x="120"
       y="160"
       xlink:href="#p"
       id="use253"
       width="100%"
       height="100%" />
    <use
       x="120"
       y="168"
       xlink:href="#p"
       id="use255"
       width="100%"
       height="100%" />
    <use
       x="120"
       y="184"
       xlink:href="#p"
       id="use257"
       width="100%"
       height="100%" />
    <use
       x="128"
       y="32"
       xlink:href="#p"
       id="use259"
       width="100%"
       height="100%" />
    <use
       x="128"
       y="56"
       xlink:href="#p"
       id="use261"
       width="100%"
       height="100%" />
    <use
       x="128"
       y="72"
       xlink:href="#p"
       id="use263"
       width="100%"
       height="100%" />
    <use
       x="128"
       y="80"
       xlink:href="#p"
       id="use265"
       width="100%"
       height="100%" />
    <use
       x="128"
       y="88"
       xlink:href="#p"
       id="use267"
       width="100%"
       height="100%" />
    <use
       x="128"
       y="96"
       xlink:href="#p"
       id="use269"
       width="100%"
       height="100%" />
    <use
       x="128"
       y="104"
       xlink:href="#p"
       id="use271"
       width="100%"
       height="100%" />
    <use
       x="128"
       y="128"
       xlink:href="#p"
       id="use273"
       width="100%"
       height="100%" />
    <use
       x="128"
       y="136"
       xlink:href="#p"
       id="use275"
       width="100%"
       height="100%" />
    <use
       x="128"
       y="168"
       xlink:href="#p"
       id="use277"
       width="100%"
       height="100%" />
    <use
       x="128"
       y="176"
       xlink:href="#p"
       id="use279"
       width="100%"
       height="100%" />
    <use
       x="128"
       y="184"
       xlink:href="#p"
       id="use281"
       width="100%"
       height="100%" />
    <use
       x="136"
       y="96"
       xlink:href="#p"
       id="use283"
       width="100%"
       height="100%" />
    <use
       x="136"
       y="120"
       xlink:href="#p"
       id="use285"
       width="100%"
       height="100%" />
    <use
       x="136"
       y="136"
       xlink:href="#p"
       id="use287"
       width="100%"
       height="100%" />
    <use
       x="136"
       y="160"
       xlink:href="#p"
       id="use289"
       width="100%"
       height="100%" />
    <use
       x="144"
       y="32"
       xlink:href="#p"
       id="use291"
       width="100%"
       height="100%" />
    <use
       x="144"
       y="40"
       xlink:href="#p"
       id="use293"
       width="100%"
       height="100%" />
    <use
       x="144"
       y="48"
       xlink:href="#p"
       id="use295"
       width="100%"
       height="100%" />
    <use
       x="144"
       y="56"
       xlink:href="#p"
       id="use297"
       width="100%"
       height="100%" />
    <use
       x="144"
       y="64"
       xlink:href="#p"
       id="use299"
       width="100%"
       height="100%" />
    <use
       x="144"
       y="72"
       xlink:href="#p"
       id="use301"
       width="100%"
       height="100%" />
    <use
       x="144"
       y="80"
       xlink:href="#p"
       id="use303"
       width="100%"
       height="100%" />
    <use
       x="144"
       y="104"
       xlink:href="#p"
       id="use305"
       width="100%"
       height="100%" />
    <use
       x="144"
       y="128"
       xlink:href="#p"
       id="use307"
       width="100%"
       height="100%" />
    <use
       x="144"
       y="144"
       xlink:href="#p"
       id="use309"
       width="100%"
       height="100%" />
    <use
       x="144"
       y="184"
       xlink:href="#p"
       id="use311"
       width="100%"
       height="100%" />
    <use
       x="144"
       y="192"
       xlink:href="#p"
       id="use313"
       width="100%"
       height="100%" />
    <use
       x="152"
       y="32"
       xlink:href="#p"
       id="use315"
       width="100%"
       height="100%" />
    <use
       x="152"
       y="80"
       xlink:href="#p"
       id="use317"
       width="100%"
       height="100%" />
    <use
       x="152"
       y="112"
       xlink:href="#p"
       id="use319"
       width="100%"
       height="100%" />
    <use
       x="152"
       y="144"
       xlink:href="#p"
       id="use321"
       width="100%"
       height="100%" />
    <use
       x="152"
       y="152"
       xlink:href="#p"
       id="use323"
       width="100%"
       height="100%" />
    <use
       x="152"
       y="160"
       xlink:href="#p"
       id="use325"
       width="100%"
       height="100%" />
    <use
       x="152"
       y="176"
       xlink:href="#p"
       id="use327"
       width="100%"
       height="100%" />
    <use
       x="152"
       y="184"
       xlink:href="#p"
       id="use329"
       width="100%"
       height="100%" />
    <use
       x="160"
       y="32"
       xlink:href="#p"
       id="use331"
       width="100%"
       height="100%" />
    <use
       x="160"
       y="48"
       xlink:href="#p"
       id="use333"
       width="100%"
       height="100%" />
    <use
       x="160"
       y="56"
       xlink:href="#p"
       id="use335"
       width="100%"
       height="100%" />
    <use
       x="160"
       y="64"
       xlink:href="#p"
       id="use337"
       width="100%"
       height="100%" />
    <use
       x="160"
       y="80"
       xlink:href="#p"
       id="use339"
       width="100%"
       height="100%" />
    <use
       x="160"
       y="96"
       xlink:href="#p"
       id="use341"
       width="100%"
       height="100%" />
    <use
       x="160"
       y="104"
       xlink:href="#p"
       id="use343"
       width="100%"
       height="100%" />
    <use
       x="160"
       y="128"
       xlink:href="#p"
       id="use345"
       width="100%"
       height="100%" />
    <use
       x="160"
       y="136"
       xlink:href="#p"
       id="use347"
       width="100%"
       height="100%" />
    <use
       x="160"
       y="144"
       xlink:href="#p"
       id="use349"
       width="100%"
       height="100%" />
    <use
       x="160"
       y="152"
       xlink:href="#p"
       id="use351"
       width="100%"
       height="100%" />
    <use
       x="160"
       y="160"
       xlink:href="#p"
       id="use353"
       width="100%"
       height="100%" />
    <use
       x="160"
       y="184"
       xlink:href="#p"
       id="use355"
       width="100%"
       height="100%" />
    <use
       x="160"
       y="192"
       xlink:href="#p"
       id="use357"
       width="100%"
       height="100%" />
    <use
       x="168"
       y="32"
       xlink:href="#p"
       id="use359"
       width="100%"
       height="100%" />
    <use
       x="168"
       y="48"
       xlink:href="#p"
       id="use361"
       width="100%"
       height="100%" />
    <use
       x="168"
       y="56"
       xlink:href="#p"
       id="use363"
       width="100%"
       height="100%" />
    <use
       x="168"
       y="64"
       xlink:href="#p"
       id="use365"
       width="100%"
       height="100%" />
    <use
       x="168"
       y="80"
       xlink:href="#p"
       id="use367"
       width="100%"
       height="100%" />
    <use
       x="168"
       y="96"
       xlink:href="#p"
       id="use369"
       width="100%"
       height="100%" />
    <use
       x="168"
       y="120"
       xlink:href="#p"
       id="use371"
       width="100%"
       height="100%" />
    <use
       x="168"
       y="128"
       xlink:href="#p"
       id="use373"
       width="100%"
       height="100%" />
    <use
       x="168"
       y="152"
       xlink:href="#p"
       id="use375"
       width="100%"
       height="100%" />
    <use
       x="168"
       y="160"
       xlink:href="#p"
       id="use377"
       width="100%"
       height="100%" />
    <use
       x="168"
       y="168"
       xlink:href="#p"
       id="use379"
       width="100%"
       height="100%" />
    <use
       x="168"
       y="176"
       xlink:href="#p"
       id="use381"
       width="100%"
       height="100%" />
    <use
       x="168"
       y="192"
       xlink:href="#p"
       id="use383"
       width="100%"
       height="100%" />
    <use
       x="176"
       y="32"
       xlink:href="#p"
       id="use385"
       width="100%"
       height="100%" />
    <use
       x="176"
       y="48"
       xlink:href="#p"
       id="use387"
       width="100%"
       height="100%" />
    <use
       x="176"
       y="56"
       xlink:href="#p"
       id="use389"
       width="100%"
       height="100%" />
    <use
       x="176"
       y="64"
       xlink:href="#p"
       id="use391"
       width="100%"
       height="100%" />
    <use
       x="176"
       y="80"
       xlink:href="#p"
       id="use393"
       width="100%"
       height="100%" />
    <use
       x="176"
       y="96"
       xlink:href="#p"
       id="use395"
       width="100%"
       height="100%" />
    <use
       x="176"
       y="152"
       xlink:href="#p"
       id="use397"
       width="100%"
       height="100%" />
    <use
       x="176"
       y="160"
       xlink:href="#p"
       id="use399"
       width="100%"
       height="100%" />
    <use
       x="176"
       y="176"
       xlink:href="#p"
       id="use401"
       width="100%"
       height="100%" />
    <use
       x="176"
       y="192"
       xlink:href="#p"
       id="use403"
       width="100%"
       height="100%" />
    <use
       x="184"
       y="32"
       xlink:href="#p"
       id="use405"
       width="100%"
       height="100%" />
    <use
       x="184"
       y="80"
       xlink:href="#p"
       id="use407"
       width="100%"
       height="100%" />
    <use
       x="184"
       y="104"
       xlink:href="#p"
       id="use409"
       width="100%"
       height="100%" />
    <use
       x="184"
       y="112"
       xlink:href="#p"
       id="use411"
       width="100%"
       height="100%" />
    <use
       x="184"
       y="120"
       xlink:href="#p"
       id="use413"
       width="100%"
       height="100%" />
    <use
       x="184"
       y="152"
       xlink:href="#p"
       id="use415"
       width="100%"
       height="100%" />
    <use
       x="184"
       y="160"
       xlink:href="#p"
       id="use417"
       width="100%"
       height="100%" />
    <use
       x="184"
       y="168"
       xlink:href="#p"
       id="use419"
       width="100%"
       height="100%" />
    <use
       x="192"
       y="32"
       xlink:href="#p"
       id="use421"
       width="100%"
       height="100%" />
    <use
       x="192"
       y="40"
       xlink:href="#p"
       id="use423"
       width="100%"
       height="100%" />
    <use
       x="192"
       y="48"
       xlink:href="#p"
       id="use425"
       width="100%"
       height="100%" />
    <use
       x="192"
       y="56"
       xlink:href="#p"
       id="use427"
       width="100%"
       height="100%" />
    <use
       x="192"
       y="64"
       xlink:href="#p"
       id="use429"
       width="100%"
       height="100%" />
    <use
       x="192"
       y="72"
       xlink:href="#p"
       id="use431"
       width="100%"
       height="100%" />
    <use
       x="192"
       y="80"
       xlink:href="#p"
       id="use433"
       width="100%"
       height="100%" />
    <use
       x="192"
       y="96"
       xlink:href="#p"
       id="use435"
       width="100%"
       height="100%" />
    <use
       x="192"
       y="104"
       xlink:href="#p"
       id="use437"
       width="100%"
       height="100%" />
    <use
       x="192"
       y="112"
       xlink:href="#p"
       id="use439"
       width="100%"
       height="100%" />
    <use
       x="192"
       y="120"
       xlink:href="#p"
       id="use441"
       width="100%"
       height="100%" />
    <use
       x="192"
       y="184"
       xlink:href="#p"
       id="use443"
       width="100%"
       height="100%" />
  </g>
  <text
     xml:space="preserve"
     style="font-style:normal;font-weight:normal;font-size:24.28969002px;line-height:125%;font-family:sans-serif;letter-spacing:0px;word-spacing:0px;fill:#000000;fill-opacity:1;stroke:none;stroke-width:1px;stroke-linecap:butt;stroke-linejoin:miter;stroke-opacity:1"
     x="-2.2059972"
     y="221.1776"
     id="text3775"
     sodipodi:linespacing="125%"><tspan
       sodipodi:role="line"
       id="tspan3777"
       x="-2.2059972"
       y="221.1776">bytes.nz/4235</tspan></text>
  <text
     xml:space="preserve"
     style="font-style:normal;font-weight:normal;font-size:28.62487984px;line-height:125%;font-family:sans-serif;letter-spacing:0px;word-spacing:0px;fill:#000000;fill-opacity:1;stroke:none;stroke-width:1px;stroke-linecap:butt;stroke-linejoin:miter;stroke-opacity:1"
     x="1.0041249"
     y="21.748199"
     id="text3779"
     sodipodi:linespacing="125%"><tspan
       sodipodi:role="line"
       id="tspan3781"
       x="1.0041249"
       y="21.748199">View Online</tspan></text>
</svg>
